<svg id="Layer_1" data-name="Layer 1" xmlns="http://www.w3.org/2000/svg" viewBox="0 0 551.3 564"><defs><style>.cls-1{fill:#fff;}</style></defs><title>tshirt_back_picture</title><path id="cloud" class="cls-1" d="M945.4,327.67c-9.54-49.54-53.6-87.1-106.35-87.1H820C805.61,169.81,743.62,118,670.52,118,597.2,118,535.06,170.11,521,241.19c-54.23,5.79-96.6,51.4-96.6,106.63,0,59.14,48.57,107.26,108.27,107.26H693a15.33,15.33,0,0,0,0-30.65H532.62c-42.8,0-77.63-34.36-77.63-76.61s34.83-76.6,77.63-76.6a76.1,76.1,0,0,1,44.25,14,15.37,15.37,0,0,0,19.84-1.53l0,0a15.29,15.29,0,0,0-1.89-23.24,106,106,0,0,0-42.78-18.12c13.07-54.36,61.55-93.69,118.44-93.69,60.19,0,111,44,120.35,103.3a106.75,106.75,0,0,0-13.94,8.43,15.32,15.32,0,0,0-2,23.32l0,0a15.39,15.39,0,0,0,19.85,1.53,76.07,76.07,0,0,1,44.24-14c37.77,0,69.3,26.75,76.2,62.06a15.38,15.38,0,0,0,15.06,12.5h0A15.29,15.29,0,0,0,945.4,327.67Z" transform="translate(-424.35 -118)"/><g id="numbers"><path class="cls-1" d="M754.58,430.19H741.39V394.07l.13-5.94.21-6.49q-3.29,3.28-4.57,4.31L730,391.72l-6.36-7.94,20.11-16h10.84Z" transform="translate(-424.35 -118)"/><path class="cls-1" d="M815.17,399q0,16.35-5.36,24.2T793.31,431q-10.8,0-16.29-8.11T771.53,399q0-16.53,5.34-24.36t16.44-7.84q10.8,0,16.33,8.2T815.17,399Zm-30.53,0q0,11.47,2,16.46t6.68,5q4.61,0,6.66-5T802,399q0-11.49-2.07-16.51c-1.38-3.34-3.6-5-6.64-5s-5.32,1.67-6.66,5S784.64,391.32,784.64,399Z" transform="translate(-424.35 -118)"/><path class="cls-1" d="M754.58,524.87H741.39V488.75l.13-5.94.21-6.49q-3.29,3.29-4.57,4.31L730,486.4l-6.36-7.94,20.11-16h10.84Z" transform="translate(-424.35 -118)"/><path class="cls-1" d="M804.5,524.87H791.3V488.75l.13-5.94.21-6.49q-3.28,3.29-4.57,4.31l-7.17,5.77-6.36-7.94,20.11-16H804.5Z" transform="translate(-424.35 -118)"/><path class="cls-1" d="M854.41,524.87H841.22V488.75l.12-5.94.22-6.49q-3.3,3.29-4.57,4.31l-7.17,5.77-6.37-7.94,20.11-16h10.85Z" transform="translate(-424.35 -118)"/><path class="cls-1" d="M915,493.66q0,16.35-5.36,24.2t-16.5,7.86q-10.82,0-16.29-8.11t-5.49-23.95q0-16.53,5.34-24.36t16.44-7.84q10.8,0,16.33,8.2T915,493.66Zm-30.53,0q0,11.47,2,16.45c1.33,3.32,3.55,5,6.69,5s5.29-1.68,6.66-5,2.05-8.82,2.05-16.39-.69-13.16-2.07-16.51-3.6-5-6.64-5-5.33,1.68-6.67,5S884.47,486,884.47,493.66Z" transform="translate(-424.35 -118)"/><path class="cls-1" d="M943.49,568.62q0,11.88-3.89,17.6t-12,5.71q-7.86,0-11.84-5.9t-4-17.41q0-12,3.88-17.72t12-5.69q7.86,0,11.87,6T943.49,568.62Zm-22.19,0q0,8.34,1.44,12c1,2.42,2.58,3.62,4.86,3.62s3.85-1.22,4.84-3.66,1.49-6.42,1.49-11.92-.5-9.57-1.5-12S929.81,553,927.6,553s-3.87,1.22-4.84,3.65S921.3,563.05,921.3,568.62Z" transform="translate(-424.35 -118)"/><path class="cls-1" d="M972,591.31h-9.6V565l.1-4.31.15-4.72q-2.38,2.38-3.32,3.14l-5.22,4.19-4.62-5.78,14.62-11.64H972Z" transform="translate(-424.35 -118)"/><path class="cls-1" d="M751.77,569.09q0,11.64-3.81,17.24t-11.75,5.59q-7.69,0-11.6-5.78t-3.9-17q0-11.76,3.8-17.34t11.7-5.57q7.68,0,11.62,5.83T751.77,569.09Zm-21.73,0q0,8.17,1.41,11.72t4.76,3.54c2.19,0,3.77-1.19,4.74-3.59s1.46-6.28,1.46-11.67-.49-9.36-1.48-11.74-2.55-3.58-4.72-3.58-3.79,1.2-4.74,3.58S730,563.64,730,569.09Z" transform="translate(-424.35 -118)"/><path class="cls-1" d="M779.7,591.31h-9.39V565.6l.09-4.23.15-4.62c-1.56,1.56-2.64,2.59-3.25,3.07l-5.1,4.11-4.53-5.66L772,546.87h7.72Z" transform="translate(-424.35 -118)"/><path class="cls-1" d="M822.83,569.09q0,11.64-3.81,17.24t-11.75,5.59q-7.69,0-11.6-5.78t-3.9-17q0-11.76,3.8-17.34t11.7-5.57q7.69,0,11.63,5.83T822.83,569.09Zm-21.73,0q0,8.17,1.41,11.72c1,2.36,2.53,3.54,4.76,3.54s3.77-1.19,4.74-3.59,1.46-6.28,1.46-11.67-.49-9.36-1.47-11.74-2.56-3.58-4.73-3.58-3.79,1.2-4.74,3.58S801.1,563.64,801.1,569.09Z" transform="translate(-424.35 -118)"/><path class="cls-1" d="M850.76,591.31h-9.39V565.6l.09-4.23.16-4.62c-1.57,1.56-2.65,2.59-3.26,3.07l-5.1,4.11-4.53-5.66L843,546.87h7.72Z" transform="translate(-424.35 -118)"/><path class="cls-1" d="M742.43,625.74q0,8.37-2.74,12.4t-8.46,4a9.4,9.4,0,0,1-8.34-4.15q-2.82-4.15-2.81-12.27c0-5.65.91-9.8,2.73-12.48s4.63-4,8.42-4a9.45,9.45,0,0,1,8.37,4.2Q742.44,617.64,742.43,625.74Zm-15.64,0q0,5.88,1,8.43a3.56,3.56,0,0,0,6.83,0q1.05-2.58,1.05-8.4t-1.06-8.46a3.54,3.54,0,0,0-6.81,0Q726.79,619.86,726.79,625.74Z" transform="translate(-424.35 -118)"/><path class="cls-1" d="M762.53,641.73h-6.76V623.22l.07-3,.11-3.32c-1.13,1.12-1.91,1.86-2.34,2.21L749.93,622,746.67,618l10.31-8.2h5.55Z" transform="translate(-424.35 -118)"/><path class="cls-1" d="M831.3,665.57q0,8.38-2.75,12.41t-8.45,4a9.41,9.41,0,0,1-8.35-4.16q-2.81-4.15-2.81-12.27,0-8.46,2.74-12.47t8.42-4a9.43,9.43,0,0,1,8.36,4.2Q831.3,657.48,831.3,665.57Zm-15.64,0q0,5.89,1,8.44a3.56,3.56,0,0,0,6.84,0q1.05-2.58,1-8.4t-1.06-8.45a3.57,3.57,0,0,0-3.4-2.57,3.53,3.53,0,0,0-3.41,2.57Q815.66,659.69,815.66,665.57Z" transform="translate(-424.35 -118)"/><path class="cls-1" d="M851.4,681.56h-6.76v-18.5l.06-3,.11-3.33c-1.12,1.13-1.9,1.86-2.34,2.21l-3.67,3-3.26-4.07,10.3-8.2h5.56Z" transform="translate(-424.35 -118)"/><path class="cls-1" d="M904.59,619.51q0,11.64-3.81,17.23T889,642.33q-7.69,0-11.6-5.77t-3.9-17q0-11.76,3.8-17.34t11.7-5.58q7.68,0,11.62,5.84T904.59,619.51Zm-21.73,0q0,8.18,1.41,11.72t4.76,3.54q3.29,0,4.74-3.59t1.46-11.67q0-8.18-1.48-11.75T889,604.19q-3.31,0-4.74,3.57T882.86,619.51Z" transform="translate(-424.35 -118)"/><path class="cls-1" d="M932.52,641.73h-9.39V616l.09-4.22.15-4.62q-2.34,2.34-3.25,3.07l-5.1,4.1-4.53-5.65,14.31-11.4h7.72Z" transform="translate(-424.35 -118)"/><path class="cls-1" d="M975.65,619.51q0,11.64-3.81,17.23t-11.75,5.59q-7.7,0-11.6-5.77t-3.9-17q0-11.76,3.8-17.34t11.7-5.58q7.7,0,11.63,5.84T975.65,619.51Zm-21.73,0q0,8.18,1.41,11.72t4.76,3.54q3.28,0,4.74-3.59t1.46-11.67q0-8.18-1.47-11.75c-1-2.38-2.56-3.57-4.73-3.57s-3.79,1.19-4.74,3.57S953.92,614.06,953.92,619.51Z" transform="translate(-424.35 -118)"/><path class="cls-1" d="M907.4,430.19H894.21V394.07l.12-5.94.22-6.49c-2.19,2.19-3.72,3.63-4.57,4.31l-7.17,5.77-6.37-7.94,20.11-16H907.4Z" transform="translate(-424.35 -118)"/><path class="cls-1" d="M968,399q0,16.35-5.36,24.2T946.13,431q-10.82,0-16.29-8.11T924.35,399q0-16.53,5.34-24.36t16.44-7.84q10.8,0,16.33,8.2T968,399Zm-30.53,0q0,11.47,2,16.46t6.69,5q4.61,0,6.66-5T954.84,399q0-11.49-2.07-16.51c-1.38-3.34-3.6-5-6.64-5s-5.33,1.67-6.66,5S937.46,391.32,937.46,399Z" transform="translate(-424.35 -118)"/></g></svg>
